<mxfile host="app.diagrams.net" modified="2023-05-26T15:57:01.785Z" agent="Mozilla/5.0 (X11; Linux x86_64) AppleWebKit/537.36 (KHTML, like Gecko) Chrome/113.0.0.0 Safari/537.36" etag="PBDW5c5U5xIaeIAfLH06" version="21.3.4" type="device">
  <diagram name="Page-1" id="q3BX-es5fw4ejMY-yHZi">
    <mxGraphModel dx="1185" dy="608" grid="1" gridSize="10" guides="1" tooltips="1" connect="1" arrows="1" fold="1" page="1" pageScale="1" pageWidth="850" pageHeight="1100" math="0" shadow="0">
      <root>
        <mxCell id="0" />
        <mxCell id="1" parent="0" />
        <mxCell id="p9rlMPjCCk4tlj975xT3-3" value="" style="shape=image;verticalLabelPosition=bottom;labelBackgroundColor=default;verticalAlign=top;aspect=fixed;imageAspect=0;image=data:image/svg+xml,PHN2ZyB4bWxucz0iaHR0cDovL3d3dy53My5vcmcvMjAwMC9zdmciIGlkPSJzdmc0Mjk5IiB2ZXJzaW9uPSIxLjEiIHZpZXdCb3g9IjAgMCA2NS42NTc5MDYgNjAuMjcwMjkiIGhlaWdodD0iNjAuMjcwMjltbSIgd2lkdGg9IjY1LjY1NzkwNm1tIj4mI3hhOyAgJiN4YTsgIDxkZWZzIGlkPSJkZWZzNDI5NiIvPiYjeGE7ICA8ZyB0cmFuc2Zvcm09InRyYW5zbGF0ZSgtNTguNDY0NDYsLTY1LjAxMTU1NikiIGlkPSJsYXllcjEiPiYjeGE7ICAgIDxwYXRoIGlkPSJwYXRoMzE0NSIgZD0ibSAxMDMuNTU4ODcsMTA1LjExNzEyIGggMTAuMDAwNDIgViA4NS4xMTYyNzkgWiBtIDAsMCIgc3Ryb2tlLW1pdGVybGltaXQ9IjEwIiBzdHJva2Utb3BhY2l0eT0iMSIgc3Ryb2tlPSIjMDAwMDAwIiBzdHJva2UtbGluZWpvaW49Im1pdGVyIiBzdHJva2UtbGluZWNhcD0iYnV0dCIgc3Ryb2tlLXdpZHRoPSIwLjE0MDU4MiIgZmlsbC1vcGFjaXR5PSIxIiBmaWxsPSIjZTZlNmU2IiBmaWxsLXJ1bGU9Im5vbnplcm8iLz4mI3hhOyAgICA8ZyB0cmFuc2Zvcm09Im1hdHJpeCgwLjM1Mjc3Nzc3LDAsMCwwLjM1Mjc3Nzc3LC0xOC4wNTQzOCwtMTMyLjAwNzQxKSIgaWQ9ImczMTQ5IiBmaWxsLW9wYWNpdHk9IjEiIGZpbGw9IiMwMDAwMDAiPiYjeGE7ICAgICAgPGcgdHJhbnNmb3JtPSJ0cmFuc2xhdGUoMzU3LjgyMDAxLDY2MS4zOTM5OCkiIGlkPSJ1c2UzMTQ3Ij4mI3hhOyAgICAgICAgPHBhdGggaWQ9InBhdGg0Mzc4IiBkPSJNIDYuNDUzMTI1LC0yLjM5MDYyNSBDIDYuNDUzMTI1LC0yLjUgNi4zMjgxMjUsLTIuNSA2LjMyODEyNSwtMi41IGMgLTAuMDYyNSwwIC0wLjEwOTM3NSwwLjAzMTI1IC0wLjEyNSwwLjEwOTM3NSAtMC4wOTM3NSwwLjI4MTI1IC0wLjMyODEyNSwxIC0xLjAxNTYyNSwxLjU3ODEyNSAtMC42ODc1LDAuNTQ2ODc1IC0xLjMxMjUsMC43MTg3NSAtMS44MjgxMjUsMC43MTg3NSAtMC44OTA2MjUsMCAtMS45NTMxMjUsLTAuNTE1NjI1IC0xLjk1MzEyNSwtMi4wNjI1IDAsLTAuNTc4MTI1IDAuMjAzMTI1LC0yLjE4NzUgMS4yMDMxMjUsLTMuMzU5Mzc1IDAuNjA5Mzc1LC0wLjcwMzEyNSAxLjU0Njg3NSwtMS4yMDMxMjUgMi40Mzc1LC0xLjIwMzEyNSAxLjAxNTYyNSwwIDEuNjA5Mzc1LDAuNzY1NjI1IDEuNjA5Mzc1LDEuOTIxODc1IDAsMC40MDYyNSAtMC4wMzEyNSwwLjQwNjI1IC0wLjAzMTI1LDAuNTE1NjI1IDAsMC4wOTM3NSAwLjEwOTM3NSwwLjA5Mzc1IDAuMTQwNjI1LDAuMDkzNzUgMC4xMjUsMCAwLjEyNSwtMC4wMTU2MjUgMC4xODc1LC0wLjIwMzEyNSBsIDAuNjI1LC0yLjUzMTI1IGMgMCwtMC4wMzEyNSAtMC4wMTU2MjUsLTAuMTA5Mzc1IC0wLjEwOTM3NSwtMC4xMDkzNzUgLTAuMDMxMjUsMCAtMC4wNDY4NzUsMC4wMTU2MjUgLTAuMTU2MjUsMC4xMjUgTCA2LjYyNSwtNi4xNDA2MjUgQyA2LjUzMTI1LC02LjI4MTI1IDYuMDc4MTI1LC03LjAzMTI1IDQuOTY4NzUsLTcuMDMxMjUgMi43MzQzNzUsLTcuMDMxMjUgMC41LC00LjgyODEyNSAwLjUsLTIuNTE1NjI1IDAuNSwtMC44NzUgMS42NzE4NzUsMC4yMTg3NSAzLjIwMzEyNSwwLjIxODc1IGMgMC44NTkzNzUsMCAxLjYyNSwtMC4zOTA2MjUgMi4xNTYyNSwtMC44NTkzNzUgMC45MjE4NzUsLTAuODEyNSAxLjA5Mzc1LC0xLjcxODc1IDEuMDkzNzUsLTEuNzUgeiBtIDAsMCIvPiYjeGE7ICAgICAgPC9nPiYjeGE7ICAgIDwvZz4mI3hhOyAgICA8cGF0aCBpZD0icGF0aDMxNTEiIGQ9Ik0gOTMuNTU4NDQzLDg1LjExNjI3OSAxMDMuNTU4ODcsNjUuMTE2ODEgODMuNTU4MDIsNzAuMTE2MzM0IFogbSAwLDAiIHN0cm9rZS1taXRlcmxpbWl0PSIxMCIgc3Ryb2tlLW9wYWNpdHk9IjEiIHN0cm9rZT0iIzAwMDAwMCIgc3Ryb2tlLWxpbmVqb2luPSJtaXRlciIgc3Ryb2tlLWxpbmVjYXA9ImJ1dHQiIHN0cm9rZS13aWR0aD0iMC4xNDA1ODIiIGZpbGwtb3BhY2l0eT0iMSIgZmlsbD0iI2U2ZTZlNiIgZmlsbC1ydWxlPSJub256ZXJvIi8+JiN4YTsgICAgPGcgdHJhbnNmb3JtPSJtYXRyaXgoMC4zNTI3Nzc3NywwLDAsMC4zNTI3Nzc3NywtMTguMDU0MzgsLTEzMi4wMDc0MSkiIGlkPSJnMzE1NSIgZmlsbC1vcGFjaXR5PSIxIiBmaWxsPSIjMDAwMDAwIj4mI3hhOyAgICAgIDxnIHRyYW5zZm9ybT0idHJhbnNsYXRlKDMwOS4yODUsNTg3LjY5Mjk5KSIgaWQ9InVzZTMxNTMiPiYjeGE7ICAgICAgICA8cGF0aCBpZD0icGF0aDQzNzQiIGQ9Im0gOC4wMTU2MjUsLTQuMjgxMjUgYyAwLC0xLjQwNjI1IC0wLjg0Mzc1LC0yLjUzMTI1IC0yLjM0Mzc1LC0yLjUzMTI1IGggLTMuMzQzNzUgYyAtMC4xODc1LDAgLTAuMjk2ODc1LDAgLTAuMjk2ODc1LDAuMTg3NSAwLDAuMTI1IDAuMDc4MTI1LDAuMTI1IDAuMjgxMjUsMC4xMjUgMC4xMjUsMCAwLjMxMjUsMC4wMTU2MjUgMC40MjE4NzUsMC4wMTU2MjUgMC4xNzE4NzUsMC4wMzEyNSAwLjIxODc1LDAuMDQ2ODc1IDAuMjE4NzUsMC4xNzE4NzUgMCwwLjAzMTI1IDAsMC4wNjI1IC0wLjAzMTI1LDAuMTg3NSBsIC0xLjM0Mzc1LDUuMzQzNzUgYyAtMC4wOTM3NSwwLjM5MDYyNSAtMC4xMDkzNzUsMC40Njg3NSAtMC45MDYyNSwwLjQ2ODc1IC0wLjE1NjI1LDAgLTAuMjY1NjI1LDAgLTAuMjY1NjI1LDAuMTg3NSBDIDAuNDA2MjUsMCAwLjQ4NDM3NSwwIDAuNjcxODc1LDAgaCAzLjMxMjUgYyAyLjA2MjUsMCA0LjAzMTI1LC0yLjEwOTM3NSA0LjAzMTI1LC00LjI4MTI1IHogbSAtMC44NzUsLTAuMzc1IGMgMCwwLjQ4NDM3NSAtMC4xODc1LDIuMTI1IC0xLjA0Njg3NSwzLjIxODc1IC0wLjI4MTI1LDAuMzc1IC0xLjA2MjUsMS4xMjUgLTIuMjk2ODc1LDEuMTI1IGggLTEuMTI1IGMgLTAuMTQwNjI1LDAgLTAuMTU2MjUsMCAtMC4yMTg3NSwwIC0wLjA5Mzc1LC0wLjAxNTYyNSAtMC4xMjUsLTAuMDMxMjUgLTAuMTI1LC0wLjEwOTM3NSAwLC0wLjAzMTI1IDAsLTAuMDQ2ODc1IDAuMDQ2ODc1LC0wLjIxODc1IEwgMy43MzQzNzUsLTYuMTI1IEMgMy44MjgxMjUsLTYuNDY4NzUgMy44NDM3NSwtNi41IDQuMjgxMjUsLTYuNSBoIDEuMDYyNSBjIDAuOTY4NzUsMCAxLjc5Njg3NSwwLjUzMTI1IDEuNzk2ODc1LDEuODQzNzUgeiBtIDAsMCIvPiYjeGE7ICAgICAgPC9nPiYjeGE7ICAgIDwvZz4mI3hhOyAgICA8cGF0aCBpZD0icGF0aDMxNTciIGQ9Ik0gNzMuNTU3NTk3LDk1LjExNjcwMiBWIDgwLjExNjc1NiBsIC05Ljk5OTA0NSw0Ljk5OTUyMyB6IG0gMCwwIiBzdHJva2UtbWl0ZXJsaW1pdD0iMTAiIHN0cm9rZS1vcGFjaXR5PSIxIiBzdHJva2U9IiMwMDAwMDAiIHN0cm9rZS1saW5lam9pbj0ibWl0ZXIiIHN0cm9rZS1saW5lY2FwPSJidXR0IiBzdHJva2Utd2lkdGg9IjAuMTQwNTgyIiBmaWxsLW9wYWNpdHk9IjEiIGZpbGw9IiNlNmU2ZTYiIGZpbGwtcnVsZT0ibm9uemVybyIvPiYjeGE7ICAgIDxnIHRyYW5zZm9ybT0ibWF0cml4KDAuMzUyNzc3NzcsMCwwLDAuMzUyNzc3NzcsLTE4LjA1NDM4LC0xMzIuMDA3NDEpIiBpZD0iZzMxNjEiIGZpbGwtb3BhY2l0eT0iMSIgZmlsbD0iIzAwMDAwMCI+JiN4YTsgICAgICA8ZyB0cmFuc2Zvcm09InRyYW5zbGF0ZSgyNDQuMzg2LDYyMS43MDg5OCkiIGlkPSJ1c2UzMTU5Ij4mI3hhOyAgICAgICAgPHBhdGggaWQ9InBhdGg0MzcwIiBkPSJtIDcuMTA5Mzc1LC0yLjQ2ODc1IGMgMCwwIDAsLTAuMTA5Mzc1IC0wLjEyNSwtMC4xMDkzNzUgLTAuMDkzNzUsMCAtMC4xMDkzNzUsMC4wNjI1IC0wLjEyNSwwLjEyNSBDIDYuMjAzMTI1LC0wLjk4NDM3NSA1Ljg0Mzc1LC0wLjMxMjUgNC4xNDA2MjUsLTAuMzEyNSBIIDIuNjg3NSBjIC0wLjE0MDYyNSwwIC0wLjE3MTg3NSwwIC0wLjIxODc1LDAgLTAuMTA5Mzc1LC0wLjAxNTYyNSAtMC4xNDA2MjUsLTAuMDMxMjUgLTAuMTQwNjI1LC0wLjEwOTM3NSAwLC0wLjAzMTI1IDAsLTAuMDQ2ODc1IDAuMDQ2ODc1LC0wLjIxODc1IEwgMy4wNjI1LC0zLjM3NSBoIDAuOTg0Mzc1IGMgMC44NDM3NSwwIDAuODQzNzUsMC4yMTg3NSAwLjg0Mzc1LDAuNDY4NzUgMCwwLjA2MjUgMCwwLjE4NzUgLTAuMDYyNSwwLjQ4NDM3NSBDIDQuODEyNSwtMi4zNzUgNC43OTY4NzUsLTIuMzQzNzUgNC43OTY4NzUsLTIuMzEyNSBjIDAsMC4wNDY4NzUgMC4wMzEyNSwwLjEwOTM3NSAwLjEyNSwwLjEwOTM3NSBDIDUsLTIuMjAzMTI1IDUuMDMxMjUsLTIuMjUgNS4wNzgxMjUsLTIuNDA2MjUgbCAwLjU2MjUsLTIuMzI4MTI1IGMgMCwtMC4wNjI1IC0wLjA0Njg3NSwtMC4xMDkzNzUgLTAuMTI1LC0wLjEwOTM3NSAtMC4wNzgxMjUsMCAtMC4xMDkzNzUsMC4wNjI1IC0wLjEyNSwwLjE3MTg3NSAtMC4yMTg3NSwwLjc2NTYyNSAtMC4zOTA2MjUsMSAtMS4zMTI1LDEgaCAtMC45Mzc1IGwgMC41OTM3NSwtMi40MDYyNSBDIDMuODI4MTI1LC02LjQzNzUgMy44NDM3NSwtNi40Njg3NSA0LjI4MTI1LC02LjQ2ODc1IEggNS42ODc1IGMgMS4yMDMxMjUsMCAxLjUxNTYyNSwwLjI4MTI1IDEuNTE1NjI1LDEuMTA5Mzc1IDAsMC4yMzQzNzUgMCwwLjI1IC0wLjA0Njg3NSwwLjUzMTI1IDAsMC4wNDY4NzUgLTAuMDE1NjI1LDAuMTI1IC0wLjAxNTYyNSwwLjE3MTg3NSAwLDAuMDQ2ODc1IDAuMDMxMjUsMC4xMjUgMC4xMjUsMC4xMjUgMC4xMDkzNzUsMCAwLjEyNSwtMC4wNjI1IDAuMTQwNjI1LC0wLjI1IEwgNy42MDkzNzUsLTYuNTE1NjI1IEMgNy42NDA2MjUsLTYuNzgxMjUgNy41OTM3NSwtNi43ODEyNSA3LjM0Mzc1LC02Ljc4MTI1IEggMi4yOTY4NzUgYyAtMC4xODc1LDAgLTAuMjk2ODc1LDAgLTAuMjk2ODc1LDAuMjAzMTI1IDAsMC4xMDkzNzUgMC4wOTM3NSwwLjEwOTM3NSAwLjI4MTI1LDAuMTA5Mzc1IDAuMzc1LDAgMC42NTYyNSwwIDAuNjU2MjUsMC4xNzE4NzUgMCwwLjA0Njg3NSAwLDAuMDYyNSAtMC4wNjI1LDAuMjUgTCAxLjU2MjUsLTAuNzgxMjUgYyAtMC4wOTM3NSwwLjM5MDYyNSAtMC4xMDkzNzUsMC40Njg3NSAtMC45MDYyNSwwLjQ2ODc1IC0wLjE3MTg3NSwwIC0wLjI4MTI1LDAgLTAuMjgxMjUsMC4xODc1IEMgMC4zNzUsMCAwLjQ2ODc1LDAgMC42NTYyNSwwIGggNS4xNzE4NzUgYyAwLjIzNDM3NSwwIDAuMjUsLTAuMDE1NjI1IDAuMzEyNSwtMC4xNzE4NzUgTCA3LjA2MjUsLTIuMzI4MTI1IEMgNy4wNzgxMjUsLTIuMzc1IDcuMTA5Mzc1LC0yLjQ2ODc1IDcuMTA5Mzc1LC0yLjQ2ODc1IFogbSAwLDAiLz4mI3hhOyAgICAgIDwvZz4mI3hhOyAgICA8L2c+JiN4YTsgICAgPHBhdGggaWQ9InBhdGgzMTYzIiBkPSJNIDczLjU1NzU5NywxMDUuMTE3MTIgSCA1OC41NTc2NTIgbCA1LjAwMDksMTcuNDk5NzEgeiBtIDAsMCIgc3Ryb2tlLW1pdGVybGltaXQ9IjEwIiBzdHJva2Utb3BhY2l0eT0iMSIgc3Ryb2tlPSIjMDAwMDAwIiBzdHJva2UtbGluZWpvaW49Im1pdGVyIiBzdHJva2UtbGluZWNhcD0iYnV0dCIgc3Ryb2tlLXdpZHRoPSIwLjE0MDU4MiIgZmlsbC1vcGFjaXR5PSIxIiBmaWxsPSIjZTZlNmU2IiBmaWxsLXJ1bGU9Im5vbnplcm8iLz4mI3hhOyAgICA8ZyB0cmFuc2Zvcm09Im1hdHJpeCgwLjM1Mjc3Nzc3LDAsMCwwLjM1Mjc3Nzc3LC0xOC4wNTQzOCwtMTMyLjAwNzQxKSIgaWQ9ImczMTY3IiBmaWxsLW9wYWNpdHk9IjEiIGZpbGw9IiMwMDAwMDAiPiYjeGE7ICAgICAgPGcgdHJhbnNmb3JtPSJ0cmFuc2xhdGUoMjMzLjI3Niw2ODkuNzM5OTkpIiBpZD0idXNlMzE2NSI+JiN4YTsgICAgICAgIDxwYXRoIGlkPSJwYXRoNDM4MiIgZD0iTSA3LjE4NzUsLTAuMjAzMTI1IEMgNy4xODc1LC0wLjMxMjUgNy4wOTM3NSwtMC4zMTI1IDYuOTUzMTI1LC0wLjMxMjUgNi4zNDM3NSwtMC4zMTI1IDYuMzQzNzUsLTAuMzc1IDYuMzEyNSwtMC42NzE4NzUgbCAtMC42MDkzNzUsLTYuMjE4NzUgYyAtMC4wMTU2MjUsLTAuMjAzMTI1IC0wLjAxNTYyNSwtMC4yNSAtMC4xODc1LC0wLjI1IC0wLjE1NjI1LDAgLTAuMjAzMTI1LDAuMDc4MTI1IC0wLjI2NTYyNSwwLjE3MTg3NSBMIDEuNzgxMjUsLTEuMTQwNjI1IEMgMS4zOTA2MjUsLTAuNDg0Mzc1IDEsLTAuMzQzNzUgMC41NjI1LC0wLjMxMjUgMC40Mzc1LC0wLjI5Njg3NSAwLjM0Mzc1LC0wLjI5Njg3NSAwLjM0Mzc1LC0wLjEwOTM3NSAwLjM0Mzc1LC0wLjA0Njg3NSAwLjQwNjI1LDAgMC40ODQzNzUsMCAwLjc1LDAgMS4wNjI1LC0wLjAzMTI1IDEuMzI4MTI1LC0wLjAzMTI1IGMgMC4zNDM3NSwwIDAuNjg3NSwwLjAzMTI1IDEsMC4wMzEyNSAwLjA2MjUsMCAwLjE4NzUsMCAwLjE4NzUsLTAuMTg3NSAwLC0wLjEwOTM3NSAtMC4wNzgxMjUsLTAuMTI1IC0wLjE1NjI1LC0wLjEyNSAtMC4yMTg3NSwtMC4wMTU2MjUgLTAuNDY4NzUsLTAuMDkzNzUgLTAuNDY4NzUsLTAuMzQzNzUgMCwtMC4xMjUgMC4wNjI1LC0wLjIzNDM3NSAwLjE0MDYyNSwtMC4zNzUgMC4wNzgxMjUsLTAuMTA5Mzc1IDAuMDc4MTI1LC0wLjEwOTM3NSAwLjc2NTYyNSwtMS4yNjU2MjUgaCAyLjUgYyAwLjAxNTYyNSwwLjIwMzEyNSAwLjE1NjI1LDEuNTYyNSAwLjE1NjI1LDEuNjU2MjUgMCwwLjI5Njg3NSAtMC41MTU2MjUsMC4zMjgxMjUgLTAuNzE4NzUsMC4zMjgxMjUgQyA0LjU5Mzc1LC0wLjMxMjUgNC41LC0wLjMxMjUgNC41LC0wLjEwOTM3NSA0LjUsMCA0LjY0MDYyNSwwIDQuNjQwNjI1LDAgNS4wNDY4NzUsMCA1LjQ2ODc1LC0wLjAzMTI1IDUuODc1LC0wLjAzMTI1IDYuMTI1LC0wLjAzMTI1IDYuNzY1NjI1LDAgNy4wMTU2MjUsMCA3LjA2MjUsMCA3LjE4NzUsMCA3LjE4NzUsLTAuMjAzMTI1IFogTSA1LjI2NTYyNSwtMi42MDkzNzUgSCAyLjk4NDM3NSBMIDQuOTM3NSwtNS45MDYyNSBaIG0gMCwwIi8+JiN4YTsgICAgICA8L2c+JiN4YTsgICAgPC9nPiYjeGE7ICAgIDxwYXRoIGlkPSJwYXRoMzE2OSIgZD0ibSA4OC41NTg5MiwxMTAuMTE2NjUgNC45OTk1MjMsMTAuMDAwNDIgMjkuOTk5ODg3LDQuOTk5NTIgeiBtIDAsMCIgc3Ryb2tlLW1pdGVybGltaXQ9IjEwIiBzdHJva2Utb3BhY2l0eT0iMSIgc3Ryb2tlPSIjMDAwMDAwIiBzdHJva2UtbGluZWpvaW49Im1pdGVyIiBzdHJva2UtbGluZWNhcD0iYnV0dCIgc3Ryb2tlLXdpZHRoPSIwLjE0MDU4MiIgZmlsbC1vcGFjaXR5PSIxIiBmaWxsPSIjZTZlNmU2IiBmaWxsLXJ1bGU9Im5vbnplcm8iLz4mI3hhOyAgICA8ZyB0cmFuc2Zvcm09Im1hdHJpeCgwLjM1Mjc3Nzc3LDAsMCwwLjM1Mjc3Nzc3LC0xOC4wNTQzOCwtMTMyLjAwNzQxKSIgaWQ9ImczMTczIiBmaWxsLW9wYWNpdHk9IjEiIGZpbGw9IiMwMDAwMDAiPiYjeGE7ICAgICAgPGcgdHJhbnNmb3JtPSJ0cmFuc2xhdGUoMzIwLjg1OCw3MDkuNTgxOTcpIiBpZD0idXNlMzE3MSI+JiN4YTsgICAgICAgIDxwYXRoIGlkPSJwYXRoNDM4NiIgZD0iTSA3LC0yLjE1NjI1IEMgNywtMi44NzUgNi40MjE4NzUsLTMuNDUzMTI1IDUuNDUzMTI1LC0zLjU2MjUgNi40ODQzNzUsLTMuNzUgNy41MzEyNSwtNC40ODQzNzUgNy41MzEyNSwtNS40Mzc1IGMgMCwtMC43MzQzNzUgLTAuNjU2MjUsLTEuMzc1IC0xLjg0Mzc1LC0xLjM3NSBIIDIuMzI4MTI1IGMgLTAuMTg3NSwwIC0wLjI4MTI1LDAgLTAuMjgxMjUsMC4yMDMxMjUgMCwwLjEwOTM3NSAwLjA5Mzc1LDAuMTA5Mzc1IDAuMjgxMjUsMC4xMDkzNzUgMCwwIDAuMjAzMTI1LDAgMC4zNzUsMC4wMTU2MjUgMC4xNzE4NzUsMC4wMzEyNSAwLjI2NTYyNSwwLjAzMTI1IDAuMjY1NjI1LDAuMTcxODc1IDAsMC4wMzEyNSAtMC4wMTU2MjUsMC4wNjI1IC0wLjAzMTI1LDAuMTg3NSBMIDEuNTkzNzUsLTAuNzgxMjUgQyAxLjUsLTAuMzkwNjI1IDEuNDY4NzUsLTAuMzEyNSAwLjY4NzUsLTAuMzEyNSBjIC0wLjE3MTg3NSwwIC0wLjI2NTYyNSwwIC0wLjI2NTYyNSwwLjIwMzEyNSBDIDAuNDIxODc1LDAgMC41MTU2MjUsMCAwLjY4NzUsMCBIIDQuMjUgQyA1LjgyODEyNSwwIDcsLTEuMTcxODc1IDcsLTIuMTU2MjUgWiBtIC0wLjM3NSwtMy4zMTI1IGMgMCwwLjg3NSAtMC44NTkzNzUsMS44MTI1IC0yLjA2MjUsMS44MTI1IEggMy4wOTM3NSBMIDMuNzE4NzUsLTYuMTI1IEMgMy44MTI1LC02LjQ2ODc1IDMuODI4MTI1LC02LjUgNC4yNSwtNi41IGggMS4yOTY4NzUgYyAwLjg3NSwwIDEuMDc4MTI1LDAuNTkzNzUgMS4wNzgxMjUsMS4wMzEyNSB6IE0gNi4wNzgxMjUsLTIuMjY1NjI1IEMgNi4wNzgxMjUsLTEuMjgxMjUgNS4xODc1LC0wLjMxMjUgNCwtMC4zMTI1IEggMi42NTYyNSBjIC0wLjE0MDYyNSwwIC0wLjE1NjI1LDAgLTAuMjE4NzUsMCAtMC4xMDkzNzUsLTAuMDE1NjI1IC0wLjE0MDYyNSwtMC4wMzEyNSAtMC4xNDA2MjUsLTAuMTA5Mzc1IDAsLTAuMDMxMjUgMCwtMC4wNDY4NzUgMC4wNjI1LC0wLjIxODc1IGwgMC42ODc1LC0yLjc4MTI1IGggMS44NzUgYyAwLjk1MzEyNSwwIDEuMTU2MjUsMC43MzQzNzUgMS4xNTYyNSwxLjE1NjI1IHogbSAwLDAiLz4mI3hhOyAgICAgIDwvZz4mI3hhOyAgICA8L2c+JiN4YTsgIDwvZz4mI3hhOzwvc3ZnPg==;" vertex="1" parent="1">
          <mxGeometry x="151" y="220" width="231" height="210" as="geometry" />
        </mxCell>
        <mxCell id="p9rlMPjCCk4tlj975xT3-4" value="" style="endArrow=none;html=1;rounded=0;strokeColor=#FF031C;" edge="1" parent="1">
          <mxGeometry width="50" height="50" relative="1" as="geometry">
            <mxPoint x="163" y="462" as="sourcePoint" />
            <mxPoint x="361" y="208" as="targetPoint" />
          </mxGeometry>
        </mxCell>
        <mxCell id="p9rlMPjCCk4tlj975xT3-5" value="1" style="edgeLabel;html=1;align=center;verticalAlign=middle;resizable=0;points=[];" vertex="1" connectable="0" parent="p9rlMPjCCk4tlj975xT3-4">
          <mxGeometry x="0.1166" relative="1" as="geometry">
            <mxPoint x="77" y="-100" as="offset" />
          </mxGeometry>
        </mxCell>
        <mxCell id="p9rlMPjCCk4tlj975xT3-7" value="" style="endArrow=none;html=1;rounded=0;strokeColor=#FF031C;" edge="1" parent="1">
          <mxGeometry width="50" height="50" relative="1" as="geometry">
            <mxPoint x="216" y="357" as="sourcePoint" />
            <mxPoint x="234" y="189" as="targetPoint" />
          </mxGeometry>
        </mxCell>
        <mxCell id="p9rlMPjCCk4tlj975xT3-8" value="4" style="edgeLabel;html=1;align=center;verticalAlign=middle;resizable=0;points=[];" vertex="1" connectable="0" parent="p9rlMPjCCk4tlj975xT3-7">
          <mxGeometry x="0.1166" relative="1" as="geometry">
            <mxPoint x="4" y="-46" as="offset" />
          </mxGeometry>
        </mxCell>
        <mxCell id="p9rlMPjCCk4tlj975xT3-11" value="" style="endArrow=none;html=1;rounded=0;strokeColor=#FF031C;" edge="1" parent="1">
          <mxGeometry width="50" height="50" relative="1" as="geometry">
            <mxPoint x="250" y="351" as="sourcePoint" />
            <mxPoint x="417" y="437" as="targetPoint" />
          </mxGeometry>
        </mxCell>
        <mxCell id="p9rlMPjCCk4tlj975xT3-12" value="3" style="edgeLabel;html=1;align=center;verticalAlign=middle;resizable=0;points=[];" vertex="1" connectable="0" parent="p9rlMPjCCk4tlj975xT3-11">
          <mxGeometry x="0.1166" relative="1" as="geometry">
            <mxPoint x="48" y="21" as="offset" />
          </mxGeometry>
        </mxCell>
        <mxCell id="p9rlMPjCCk4tlj975xT3-13" value="" style="endArrow=none;html=1;rounded=0;strokeColor=#FF031C;" edge="1" parent="1">
          <mxGeometry width="50" height="50" relative="1" as="geometry">
            <mxPoint x="237" y="367" as="sourcePoint" />
            <mxPoint x="140" y="320" as="targetPoint" />
          </mxGeometry>
        </mxCell>
        <mxCell id="p9rlMPjCCk4tlj975xT3-14" value="2" style="edgeLabel;html=1;align=center;verticalAlign=middle;resizable=0;points=[];" vertex="1" connectable="0" parent="p9rlMPjCCk4tlj975xT3-13">
          <mxGeometry x="0.1166" relative="1" as="geometry">
            <mxPoint x="-22" y="-16" as="offset" />
          </mxGeometry>
        </mxCell>
        <mxCell id="p9rlMPjCCk4tlj975xT3-21" value="1" style="ellipse;whiteSpace=wrap;html=1;aspect=fixed;" vertex="1" parent="1">
          <mxGeometry x="590" y="235" width="30" height="30" as="geometry" />
        </mxCell>
        <mxCell id="p9rlMPjCCk4tlj975xT3-22" value="2" style="ellipse;whiteSpace=wrap;html=1;aspect=fixed;" vertex="1" parent="1">
          <mxGeometry x="540" y="285" width="30" height="30" as="geometry" />
        </mxCell>
        <mxCell id="p9rlMPjCCk4tlj975xT3-23" value="3" style="ellipse;whiteSpace=wrap;html=1;aspect=fixed;" vertex="1" parent="1">
          <mxGeometry x="640" y="285" width="30" height="30" as="geometry" />
        </mxCell>
        <mxCell id="p9rlMPjCCk4tlj975xT3-24" value="4" style="ellipse;whiteSpace=wrap;html=1;aspect=fixed;" vertex="1" parent="1">
          <mxGeometry x="510" y="335" width="30" height="30" as="geometry" />
        </mxCell>
        <mxCell id="p9rlMPjCCk4tlj975xT3-25" value="A" style="ellipse;whiteSpace=wrap;html=1;aspect=fixed;" vertex="1" parent="1">
          <mxGeometry x="570" y="335" width="30" height="30" as="geometry" />
        </mxCell>
        <mxCell id="p9rlMPjCCk4tlj975xT3-26" value="B" style="ellipse;whiteSpace=wrap;html=1;aspect=fixed;" vertex="1" parent="1">
          <mxGeometry x="610" y="335" width="30" height="30" as="geometry" />
        </mxCell>
        <mxCell id="p9rlMPjCCk4tlj975xT3-27" value="C" style="ellipse;whiteSpace=wrap;html=1;aspect=fixed;" vertex="1" parent="1">
          <mxGeometry x="670" y="335" width="30" height="30" as="geometry" />
        </mxCell>
        <mxCell id="p9rlMPjCCk4tlj975xT3-28" value="E" style="ellipse;whiteSpace=wrap;html=1;aspect=fixed;" vertex="1" parent="1">
          <mxGeometry x="480" y="385" width="30" height="30" as="geometry" />
        </mxCell>
        <mxCell id="p9rlMPjCCk4tlj975xT3-29" value="D" style="ellipse;whiteSpace=wrap;html=1;aspect=fixed;" vertex="1" parent="1">
          <mxGeometry x="540" y="385" width="30" height="30" as="geometry" />
        </mxCell>
        <mxCell id="p9rlMPjCCk4tlj975xT3-30" value="" style="endArrow=none;html=1;rounded=0;" edge="1" parent="1" source="p9rlMPjCCk4tlj975xT3-22" target="p9rlMPjCCk4tlj975xT3-21">
          <mxGeometry width="50" height="50" relative="1" as="geometry">
            <mxPoint x="460" y="285" as="sourcePoint" />
            <mxPoint x="510" y="235" as="targetPoint" />
          </mxGeometry>
        </mxCell>
        <mxCell id="p9rlMPjCCk4tlj975xT3-31" value="" style="endArrow=none;html=1;rounded=0;" edge="1" parent="1" source="p9rlMPjCCk4tlj975xT3-23" target="p9rlMPjCCk4tlj975xT3-21">
          <mxGeometry width="50" height="50" relative="1" as="geometry">
            <mxPoint x="576" y="299" as="sourcePoint" />
            <mxPoint x="604" y="271" as="targetPoint" />
          </mxGeometry>
        </mxCell>
        <mxCell id="p9rlMPjCCk4tlj975xT3-32" value="" style="endArrow=none;html=1;rounded=0;" edge="1" parent="1" source="p9rlMPjCCk4tlj975xT3-24" target="p9rlMPjCCk4tlj975xT3-22">
          <mxGeometry width="50" height="50" relative="1" as="geometry">
            <mxPoint x="586" y="309" as="sourcePoint" />
            <mxPoint x="614" y="281" as="targetPoint" />
          </mxGeometry>
        </mxCell>
        <mxCell id="p9rlMPjCCk4tlj975xT3-33" value="" style="endArrow=none;html=1;rounded=0;" edge="1" parent="1" source="p9rlMPjCCk4tlj975xT3-25" target="p9rlMPjCCk4tlj975xT3-22">
          <mxGeometry width="50" height="50" relative="1" as="geometry">
            <mxPoint x="596" y="319" as="sourcePoint" />
            <mxPoint x="624" y="291" as="targetPoint" />
          </mxGeometry>
        </mxCell>
        <mxCell id="p9rlMPjCCk4tlj975xT3-34" value="" style="endArrow=none;html=1;rounded=0;" edge="1" parent="1" source="p9rlMPjCCk4tlj975xT3-26" target="p9rlMPjCCk4tlj975xT3-23">
          <mxGeometry width="50" height="50" relative="1" as="geometry">
            <mxPoint x="606" y="329" as="sourcePoint" />
            <mxPoint x="634" y="301" as="targetPoint" />
          </mxGeometry>
        </mxCell>
        <mxCell id="p9rlMPjCCk4tlj975xT3-35" value="" style="endArrow=none;html=1;rounded=0;" edge="1" parent="1" source="p9rlMPjCCk4tlj975xT3-27" target="p9rlMPjCCk4tlj975xT3-23">
          <mxGeometry width="50" height="50" relative="1" as="geometry">
            <mxPoint x="616" y="339" as="sourcePoint" />
            <mxPoint x="644" y="311" as="targetPoint" />
          </mxGeometry>
        </mxCell>
        <mxCell id="p9rlMPjCCk4tlj975xT3-36" value="" style="endArrow=none;html=1;rounded=0;" edge="1" parent="1" source="p9rlMPjCCk4tlj975xT3-28" target="p9rlMPjCCk4tlj975xT3-24">
          <mxGeometry width="50" height="50" relative="1" as="geometry">
            <mxPoint x="626" y="349" as="sourcePoint" />
            <mxPoint x="654" y="321" as="targetPoint" />
          </mxGeometry>
        </mxCell>
        <mxCell id="p9rlMPjCCk4tlj975xT3-37" value="" style="endArrow=none;html=1;rounded=0;" edge="1" parent="1" source="p9rlMPjCCk4tlj975xT3-29" target="p9rlMPjCCk4tlj975xT3-24">
          <mxGeometry width="50" height="50" relative="1" as="geometry">
            <mxPoint x="636" y="359" as="sourcePoint" />
            <mxPoint x="664" y="331" as="targetPoint" />
          </mxGeometry>
        </mxCell>
        <mxCell id="p9rlMPjCCk4tlj975xT3-38" value="" style="endArrow=classic;html=1;rounded=0;strokeColor=#FF031C;" edge="1" parent="1">
          <mxGeometry width="50" height="50" relative="1" as="geometry">
            <mxPoint x="225" y="277" as="sourcePoint" />
            <mxPoint x="240" y="278" as="targetPoint" />
          </mxGeometry>
        </mxCell>
        <mxCell id="p9rlMPjCCk4tlj975xT3-39" value="" style="endArrow=classic;html=1;rounded=0;strokeColor=#FF031C;" edge="1" parent="1">
          <mxGeometry width="50" height="50" relative="1" as="geometry">
            <mxPoint x="331" y="247" as="sourcePoint" />
            <mxPoint x="344" y="257" as="targetPoint" />
          </mxGeometry>
        </mxCell>
        <mxCell id="p9rlMPjCCk4tlj975xT3-40" value="" style="endArrow=classic;html=1;rounded=0;strokeColor=#FF031C;" edge="1" parent="1">
          <mxGeometry width="50" height="50" relative="1" as="geometry">
            <mxPoint x="353" y="404" as="sourcePoint" />
            <mxPoint x="360" y="390" as="targetPoint" />
          </mxGeometry>
        </mxCell>
        <mxCell id="p9rlMPjCCk4tlj975xT3-41" value="" style="endArrow=classic;html=1;rounded=0;strokeColor=#FF031C;" edge="1" parent="1">
          <mxGeometry width="50" height="50" relative="1" as="geometry">
            <mxPoint x="168" y="334" as="sourcePoint" />
            <mxPoint x="161" y="348" as="targetPoint" />
          </mxGeometry>
        </mxCell>
      </root>
    </mxGraphModel>
  </diagram>
</mxfile>
